<?xml version="1.0" standalone="no"?>
<!DOCTYPE svg PUBLIC "-//W3C//DTD SVG 20010904//EN"
 "http://www.w3.org/TR/2001/REC-SVG-20010904/DTD/svg10.dtd">
<svg version="1.0" xmlns="http://www.w3.org/2000/svg"
 width="200.000000pt" height="200.000000pt" viewBox="0 0 200.000000 200.000000"
 preserveAspectRatio="xMidYMid meet">

<g transform="translate(0.000000,200.000000) scale(0.100000,-0.100000)"
fill="#000000" stroke="none">
<path d="M904 1868 c4 -73 18 -232 32 -354 28 -251 43 -454 33 -454 -12 0
-128 135 -277 322 -78 97 -185 224 -238 283 l-97 107 -63 -63 -64 -63 23 -24
c43 -47 234 -210 402 -344 180 -144 293 -243 285 -250 -7 -7 -217 9 -355 27
-164 20 -446 45 -522 45 l-63 0 0 -92 0 -91 133 7 c72 3 254 19 402 36 297 32
405 40 405 29 0 -11 -130 -123 -300 -260 -168 -134 -339 -280 -382 -326 l-28
-29 64 -63 63 -62 105 118 c58 65 166 192 239 283 144 179 257 310 268 310 9
0 -4 -181 -33 -445 -14 -126 -28 -290 -32 -362 l-7 -133 92 0 91 0 0 33 c0 75
-21 333 -41 501 -24 207 -37 406 -28 406 11 0 87 -87 245 -283 149 -183 315
-377 351 -409 18 -17 21 -15 82 46 l63 63 -108 98 c-59 53 -195 167 -302 253
-198 159 -302 248 -302 261 0 11 109 3 405 -29 149 -17 330 -33 403 -36 l132
-7 0 91 0 92 -62 0 c-77 0 -359 -25 -523 -45 -138 -18 -348 -34 -355 -27 -8 7
103 105 290 255 180 144 358 296 397 339 l23 24 -64 63 -63 62 -86 -93 c-47
-51 -156 -181 -242 -288 -167 -208 -272 -330 -283 -330 -11 0 3 196 32 455 14
127 28 287 32 358 l7 127 -93 0 -93 0 7 -132z"/>
</g>
</svg>
